<mxfile host="65bd71144e">
    <diagram id="Dg5AnlnF2rJm70xTPWof" name="Page-1">
        <mxGraphModel dx="620" dy="1194" grid="1" gridSize="10" guides="1" tooltips="1" connect="1" arrows="1" fold="1" page="1" pageScale="1" pageWidth="1200" pageHeight="800" math="0" shadow="0">
            <root>
                <mxCell id="0"/>
                <mxCell id="1" parent="0"/>
                <mxCell id="49" value="s2" style="rounded=0;whiteSpace=wrap;html=1;fillColor=none;strokeColor=#3333FF;fontColor=#3333FF;verticalAlign=top;align=left;" parent="1" vertex="1">
                    <mxGeometry x="380" y="10" width="40" height="340" as="geometry"/>
                </mxCell>
                <mxCell id="47" value="s2" style="rounded=0;whiteSpace=wrap;html=1;fillColor=none;strokeColor=#3333FF;fontColor=#3333FF;verticalAlign=top;align=left;" parent="1" vertex="1">
                    <mxGeometry x="260" y="10" width="40" height="340" as="geometry"/>
                </mxCell>
                <mxCell id="51" value="s1" style="rounded=0;whiteSpace=wrap;html=1;fillColor=none;align=left;verticalAlign=bottom;fontColor=#6666FF;strokeColor=#6666FF;" parent="1" vertex="1">
                    <mxGeometry x="100" y="290" width="240" height="60" as="geometry"/>
                </mxCell>
                <mxCell id="2" value="" style="endArrow=none;html=1;" parent="1" edge="1">
                    <mxGeometry width="50" height="50" relative="1" as="geometry">
                        <mxPoint x="80" y="360" as="sourcePoint"/>
                        <mxPoint x="80" y="40" as="targetPoint"/>
                    </mxGeometry>
                </mxCell>
                <mxCell id="3" value="" style="endArrow=none;html=1;" parent="1" edge="1">
                    <mxGeometry width="50" height="50" relative="1" as="geometry">
                        <mxPoint x="80" y="360" as="sourcePoint"/>
                        <mxPoint x="400" y="360" as="targetPoint"/>
                    </mxGeometry>
                </mxCell>
                <mxCell id="4" value="Group" style="text;html=1;strokeColor=none;fillColor=none;align=center;verticalAlign=middle;whiteSpace=wrap;rounded=0;rotation=-90;fontSize=25;" parent="1" vertex="1">
                    <mxGeometry x="40" y="190" width="40" height="20" as="geometry"/>
                </mxCell>
                <mxCell id="5" value="Over Time" style="text;html=1;strokeColor=none;fillColor=none;align=center;verticalAlign=middle;whiteSpace=wrap;rounded=0;rotation=0;fontSize=25;" parent="1" vertex="1">
                    <mxGeometry x="170" y="370" width="120" height="20" as="geometry"/>
                </mxCell>
                <mxCell id="6" value="g1" style="shape=umlActor;verticalLabelPosition=middle;verticalAlign=middle;html=1;outlineConnect=0;fontSize=14;labelPosition=center;align=center;" parent="1" vertex="1">
                    <mxGeometry x="110" y="300" width="20" height="30" as="geometry"/>
                </mxCell>
                <mxCell id="7" value="g1" style="shape=umlActor;verticalLabelPosition=middle;verticalAlign=middle;html=1;outlineConnect=0;fontSize=14;labelPosition=center;align=center;" parent="1" vertex="1">
                    <mxGeometry x="150" y="300" width="20" height="30" as="geometry"/>
                </mxCell>
                <mxCell id="8" value="g1" style="shape=umlActor;verticalLabelPosition=middle;verticalAlign=middle;html=1;outlineConnect=0;fontSize=14;labelPosition=center;align=center;" parent="1" vertex="1">
                    <mxGeometry x="190" y="300" width="20" height="30" as="geometry"/>
                </mxCell>
                <mxCell id="9" value="g1" style="shape=umlActor;verticalLabelPosition=middle;verticalAlign=middle;html=1;outlineConnect=0;fontSize=14;labelPosition=center;align=center;" parent="1" vertex="1">
                    <mxGeometry x="230" y="300" width="20" height="30" as="geometry"/>
                </mxCell>
                <mxCell id="10" value="g1" style="shape=umlActor;verticalLabelPosition=middle;verticalAlign=middle;html=1;outlineConnect=0;fontSize=14;labelPosition=center;align=center;" parent="1" vertex="1">
                    <mxGeometry x="270" y="300" width="20" height="30" as="geometry"/>
                </mxCell>
                <mxCell id="11" value="g1" style="shape=umlActor;verticalLabelPosition=middle;verticalAlign=middle;html=1;outlineConnect=0;fontSize=14;labelPosition=center;align=center;" parent="1" vertex="1">
                    <mxGeometry x="310" y="300" width="20" height="30" as="geometry"/>
                </mxCell>
                <mxCell id="14" value="g2" style="shape=umlActor;verticalLabelPosition=middle;verticalAlign=middle;html=1;outlineConnect=0;fontSize=14;labelPosition=center;align=center;" parent="1" vertex="1">
                    <mxGeometry x="110" y="240" width="20" height="30" as="geometry"/>
                </mxCell>
                <mxCell id="15" value="g3" style="shape=umlActor;verticalLabelPosition=middle;verticalAlign=middle;html=1;outlineConnect=0;fontSize=14;labelPosition=center;align=center;" parent="1" vertex="1">
                    <mxGeometry x="110" y="190" width="20" height="30" as="geometry"/>
                </mxCell>
                <mxCell id="16" value="g2" style="shape=umlActor;verticalLabelPosition=middle;verticalAlign=middle;html=1;outlineConnect=0;fontSize=14;labelPosition=center;align=center;" parent="1" vertex="1">
                    <mxGeometry x="150" y="240" width="20" height="30" as="geometry"/>
                </mxCell>
                <mxCell id="17" value="g3" style="shape=umlActor;verticalLabelPosition=middle;verticalAlign=middle;html=1;outlineConnect=0;fontSize=14;labelPosition=center;align=center;" parent="1" vertex="1">
                    <mxGeometry x="150" y="190" width="20" height="30" as="geometry"/>
                </mxCell>
                <mxCell id="18" value="g4" style="shape=umlActor;verticalLabelPosition=middle;verticalAlign=middle;html=1;outlineConnect=0;fontSize=14;labelPosition=center;align=center;" parent="1" vertex="1">
                    <mxGeometry x="150" y="140" width="20" height="30" as="geometry"/>
                </mxCell>
                <mxCell id="19" value="g5" style="shape=umlActor;verticalLabelPosition=middle;verticalAlign=middle;html=1;outlineConnect=0;fontSize=14;labelPosition=center;align=center;" parent="1" vertex="1">
                    <mxGeometry x="150" y="80" width="20" height="30" as="geometry"/>
                </mxCell>
                <mxCell id="24" value="g3" style="shape=umlActor;verticalLabelPosition=middle;verticalAlign=middle;html=1;outlineConnect=0;fontSize=14;labelPosition=center;align=center;" parent="1" vertex="1">
                    <mxGeometry x="190" y="190" width="20" height="30" as="geometry"/>
                </mxCell>
                <mxCell id="25" value="g4" style="shape=umlActor;verticalLabelPosition=middle;verticalAlign=middle;html=1;outlineConnect=0;fontSize=14;labelPosition=center;align=center;" parent="1" vertex="1">
                    <mxGeometry x="190" y="140" width="20" height="30" as="geometry"/>
                </mxCell>
                <mxCell id="26" value="g5" style="shape=umlActor;verticalLabelPosition=middle;verticalAlign=middle;html=1;outlineConnect=0;fontSize=14;labelPosition=center;align=center;" parent="1" vertex="1">
                    <mxGeometry x="190" y="80" width="20" height="30" as="geometry"/>
                </mxCell>
                <mxCell id="27" value="g6" style="shape=umlActor;verticalLabelPosition=middle;verticalAlign=middle;html=1;outlineConnect=0;fontSize=14;labelPosition=center;align=center;" parent="1" vertex="1">
                    <mxGeometry x="190" y="30" width="20" height="30" as="geometry"/>
                </mxCell>
                <mxCell id="28" value="g3" style="shape=umlActor;verticalLabelPosition=middle;verticalAlign=middle;html=1;outlineConnect=0;fontSize=14;labelPosition=center;align=center;" parent="1" vertex="1">
                    <mxGeometry x="230" y="190" width="20" height="30" as="geometry"/>
                </mxCell>
                <mxCell id="29" value="g4" style="shape=umlActor;verticalLabelPosition=middle;verticalAlign=middle;html=1;outlineConnect=0;fontSize=14;labelPosition=center;align=center;" parent="1" vertex="1">
                    <mxGeometry x="230" y="140" width="20" height="30" as="geometry"/>
                </mxCell>
                <mxCell id="30" value="g5" style="shape=umlActor;verticalLabelPosition=middle;verticalAlign=middle;html=1;outlineConnect=0;fontSize=14;labelPosition=center;align=center;" parent="1" vertex="1">
                    <mxGeometry x="230" y="80" width="20" height="30" as="geometry"/>
                </mxCell>
                <mxCell id="31" value="g6" style="shape=umlActor;verticalLabelPosition=middle;verticalAlign=middle;html=1;outlineConnect=0;fontSize=14;labelPosition=center;align=center;" parent="1" vertex="1">
                    <mxGeometry x="230" y="30" width="20" height="30" as="geometry"/>
                </mxCell>
                <mxCell id="32" value="g3" style="shape=umlActor;verticalLabelPosition=middle;verticalAlign=middle;html=1;outlineConnect=0;fontSize=14;labelPosition=center;align=center;" parent="1" vertex="1">
                    <mxGeometry x="270" y="190" width="20" height="30" as="geometry"/>
                </mxCell>
                <mxCell id="33" value="g4" style="shape=umlActor;verticalLabelPosition=middle;verticalAlign=middle;html=1;outlineConnect=0;fontSize=14;labelPosition=center;align=center;" parent="1" vertex="1">
                    <mxGeometry x="270" y="140" width="20" height="30" as="geometry"/>
                </mxCell>
                <mxCell id="34" value="g5" style="shape=umlActor;verticalLabelPosition=middle;verticalAlign=middle;html=1;outlineConnect=0;fontSize=14;labelPosition=center;align=center;" parent="1" vertex="1">
                    <mxGeometry x="270" y="80" width="20" height="30" as="geometry"/>
                </mxCell>
                <mxCell id="35" value="g6" style="shape=umlActor;verticalLabelPosition=middle;verticalAlign=middle;html=1;outlineConnect=0;fontSize=14;labelPosition=center;align=center;" parent="1" vertex="1">
                    <mxGeometry x="270" y="30" width="20" height="30" as="geometry"/>
                </mxCell>
                <mxCell id="36" value="g3" style="shape=umlActor;verticalLabelPosition=middle;verticalAlign=middle;html=1;outlineConnect=0;fontSize=14;labelPosition=center;align=center;" parent="1" vertex="1">
                    <mxGeometry x="310" y="190" width="20" height="30" as="geometry"/>
                </mxCell>
                <mxCell id="37" value="g4" style="shape=umlActor;verticalLabelPosition=middle;verticalAlign=middle;html=1;outlineConnect=0;fontSize=14;labelPosition=center;align=center;" parent="1" vertex="1">
                    <mxGeometry x="310" y="140" width="20" height="30" as="geometry"/>
                </mxCell>
                <mxCell id="38" value="g5" style="shape=umlActor;verticalLabelPosition=middle;verticalAlign=middle;html=1;outlineConnect=0;fontSize=14;labelPosition=center;align=center;" parent="1" vertex="1">
                    <mxGeometry x="310" y="80" width="20" height="30" as="geometry"/>
                </mxCell>
                <mxCell id="39" value="g6" style="shape=umlActor;verticalLabelPosition=middle;verticalAlign=middle;html=1;outlineConnect=0;fontSize=14;labelPosition=center;align=center;" parent="1" vertex="1">
                    <mxGeometry x="310" y="30" width="20" height="30" as="geometry"/>
                </mxCell>
                <mxCell id="40" value="g3" style="shape=umlActor;verticalLabelPosition=middle;verticalAlign=middle;html=1;outlineConnect=0;fontSize=14;labelPosition=center;align=center;" parent="1" vertex="1">
                    <mxGeometry x="350" y="190" width="20" height="30" as="geometry"/>
                </mxCell>
                <mxCell id="41" value="g4" style="shape=umlActor;verticalLabelPosition=middle;verticalAlign=middle;html=1;outlineConnect=0;fontSize=14;labelPosition=center;align=center;" parent="1" vertex="1">
                    <mxGeometry x="350" y="140" width="20" height="30" as="geometry"/>
                </mxCell>
                <mxCell id="42" value="g5" style="shape=umlActor;verticalLabelPosition=middle;verticalAlign=middle;html=1;outlineConnect=0;fontSize=14;labelPosition=center;align=center;" parent="1" vertex="1">
                    <mxGeometry x="350" y="80" width="20" height="30" as="geometry"/>
                </mxCell>
                <mxCell id="43" value="g6" style="shape=umlActor;verticalLabelPosition=middle;verticalAlign=middle;html=1;outlineConnect=0;fontSize=14;labelPosition=center;align=center;" parent="1" vertex="1">
                    <mxGeometry x="350" y="30" width="20" height="30" as="geometry"/>
                </mxCell>
                <mxCell id="44" value="g3" style="shape=umlActor;verticalLabelPosition=middle;verticalAlign=middle;html=1;outlineConnect=0;fontSize=14;labelPosition=center;align=center;" parent="1" vertex="1">
                    <mxGeometry x="390" y="190" width="20" height="30" as="geometry"/>
                </mxCell>
                <mxCell id="45" value="g4" style="shape=umlActor;verticalLabelPosition=middle;verticalAlign=middle;html=1;outlineConnect=0;fontSize=14;labelPosition=center;align=center;" parent="1" vertex="1">
                    <mxGeometry x="390" y="140" width="20" height="30" as="geometry"/>
                </mxCell>
                <mxCell id="46" value="g5" style="shape=umlActor;verticalLabelPosition=middle;verticalAlign=middle;html=1;outlineConnect=0;fontSize=14;labelPosition=center;align=center;" parent="1" vertex="1">
                    <mxGeometry x="390" y="80" width="20" height="30" as="geometry"/>
                </mxCell>
                <mxCell id="48" value="Temporal Distributed System" style="text;html=1;strokeColor=none;fillColor=none;align=center;verticalAlign=middle;whiteSpace=wrap;rounded=0;rotation=-90;" parent="1" vertex="1">
                    <mxGeometry x="326" y="79" width="210" height="20" as="geometry"/>
                </mxCell>
            </root>
        </mxGraphModel>
    </diagram>
</mxfile>